
<svg xmlns="http://www.w3.org/2000/svg" width="537" height="547" fill="none" xmlns:v="https://vecta.io/nano"><mask id="A" mask-type="alpha" maskUnits="userSpaceOnUse" x="0" y="0" width="537" height="547"><path fill="#c4c4c4" d="M0 0h537v547H0z"/></mask><g mask="url(#A)"><g opacity=".02"><path d="M368.721 99.676c-17.084 2.474-34.447 1.438-51.208-2.474-17.74-4.145-33.874-12.876-51.354-17.846-15.354-4.388-34.903-5.849-49.342 2.33-12.282 6.973-18.61 19.655-12.014 32.909 2.704 5.461 7.092 9.83 12.226 13.358-.111-.018-.233-.047-.344-.066.703.595 1.427 1.145 2.182 1.639l.855.16c6.03 3.643 12.801 6.291 18.975 8.23l1.537.458c-20.499 2.585-38.834 13.053-55.14 25.55-16.586 12.706-28.01 32.193-20.969 53.342 2.762 8.293 9.057 13.615 17.831 13.761 8.718.114 16.629-7.302 22.094-13.249 10.464-11.348 18.537-23.611 31.604-32.265-2.231 1.97-4.36 4.014-6.364 6.153-11.429 12.196-18.793 27.282-16.543 45.266 2.118 16.985 14.202 31.087 29.034 38.768 4.274 2.211 8.723 3.666 13.273 4.511l.011.01-13.004 1.062c-.297.021-.605.031-.913.063a141.67 141.67 0 0 1-9.678.204c-14.017-.229-27.297-3.25-40.81-6.683-12.124-3.07-28.041-6.469-41.797-4.125a46.03 46.03 0 0 0-3.309.681c-3.973.978-7.706 2.522-11.064 4.76l-1.262.891c-1.346 1.003-2.611 2.125-3.784 3.377-.298.318-.607.67-.894.999-.797.942-1.57 1.926-2.274 2.997-.137.214-.285.418-.398.653-.346.552-.636 1.135-.872 1.705-.307.738-.547 1.474-.71 2.24a7.66 7.66 0 0 0-.236 1.232c-.154 1.031-.175 2.08-.13 3.126a26.6 26.6 0 0 0 .233 2.077c.31 1.744.852 3.491 1.569 5.189a18.38 18.38 0 0 0 .772 1.685c1.004 2.052 2.203 3.987 3.505 5.699l.012.011c.543.765 1.106 1.464 1.669 2.163.058.075.127.161.207.236 7.374 8.662 17.527 13.925 28.285 17.083 12.107 3.567 25.287 3.867 37.822 3.306 9.308-.402 19.448-2.01 28.082-6.163-26.203 17.497-54.593 35.935-71.127 63.155-7.58 12.49-11.436 26.911-10.985 41.479a16.97 16.97 0 0 0 .024 1.07 46.52 46.52 0 0 0 .211 2.783l.012.011c.395 3.683 1.22 7.362 2.558 10.837.264.654.539 1.318.847 1.969.748 1.642 1.604 3.213 2.623 4.681a42.42 42.42 0 0 0 .901 1.25 24.88 24.88 0 0 0 1.4 1.675c.355.419.753.792 1.141 1.177.307.287.602.543.92.819a14.66 14.66 0 0 0 1.449 1.144c.057.054.136.106.215.159.452.338.97.652 1.454.956.36.231.731.429 1.123.626.46.238.92.455 1.401.671a18.22 18.22 0 0 0 1.776.682 18.44 18.44 0 0 0 1.87.535c.166.005.411.063.644.111.833.183 1.664.299 2.515.349a20.16 20.16 0 0 0 2.825.018c10.471-.594 20.742-8.682 27.881-15.091 12.047-10.804 21.86-24.878 30.417-38.889-1.528 3.569-2.567 7.232-3.008 10.963-.644 3.606-1.121 7.284-.397 10.889.106 1.552.276 3.058.622 4.536.116.537.266 1.061.437 1.585a18.99 18.99 0 0 0 1.997 4.414 18.16 18.16 0 0 0 .924 1.293c.714.926 1.535 1.76 2.487 2.545.374.308.771.615 1.21.898.553.39 1.149.735 1.767 1.079l.594.301c.371.197.74.373 1.109.526l.012.011a39.93 39.93 0 0 0 3.71 1.49c.447.162.926.312 1.394.451 1.882.568 3.805 1.002 5.734 1.292.909.147 1.817.272 2.735.341 3.187.316 6.42.332 9.633.096a38.91 38.91 0 0 0 2.761-.233c4.738-.518 9.437-1.52 13.886-2.779.536-.138 1.06-.31 1.584-.459l2.555-.811c30.02-10.031 51.156-36.485 64.265-64.223 9.753-20.668 14.187-42.41 16.954-64.539.01-.034.009-.056.009-.078.612 20.894 11.476 42.614 30.804 50.811.973.421 1.978.807 3.004 1.149a41.29 41.29 0 0 0 5.929 1.539c1.033.198 2.063.33 3.069.397.874.071 1.735.109 2.585.115 2.503-.026 4.886-.357 7.104-1.014.47-.115.896-.25 1.321-.407 1.55-.514 3.028-1.201 4.403-1.985.466-.247.899-.526 1.341-.816a25.02 25.02 0 0 0 5.289-4.617 19.02 19.02 0 0 0 .838-1.031 25.32 25.32 0 0 0 2.772-4.304c.301-.594.601-1.188.846-1.792a26.89 26.89 0 0 0 1.783-5.915c.122-.655.232-1.342.287-2.017.266-2.336.232-4.762-.112-7.2a24.24 24.24 0 0 0-.427-2.28c-.505-2.289-1.307-4.579-2.429-6.848-4.875-9.847-14.431-17.093-22.397-24.28-12.353-11.17-18.639-24.026-20.369-40.604-1.189-11.478-.593-23.377.583-35.053 0 0-.001-.022.01-.033l1.369-12.2-.001-.022c.082-.544.129-1.119.21-1.684.037-.222.053-.421.078-.653.406-3.124.924-6.185 1.532-9.206v-.022c1.989-10.08 4.839-19.802 7.64-29.678.584-1.033 1.146-2.066 1.686-3.121a2.83 2.83 0 0 0 .083-.157l12.624-20.221c9.925-16.383 19.873-32.745 31.207-48.214 7.679-10.474 16.694-19.912 26.291-28.717l-3.963 4.662c-8.651 10.098-16.314 21.079-23.597 32.203-14.26 21.808-23.817 45.801-30.625 70.874-5.913 21.724-10.617 44.688-6.688 67.174a80.69 80.69 0 0 0 4.098 14.78 52.48 52.48 0 0 0 1.329 3.211c.952 2.153 1.992 4.281 3.173 6.328 1.003 2.03 2.125 3.957 3.385 5.758.382.55.764 1.078 1.177 1.594a36.93 36.93 0 0 0 6.477 6.519l.012.011.927.697a37.4 37.4 0 0 0 5.424 3.31l.012.011 1.255.599c1.231.555 2.494 1.077 3.822 1.53.39.131.781.284 1.193.392.201.081.435.151.657.21 1.515.458 3.05.828 4.625 1.107.3.068.611.124.91.169 1.563.247 3.147.428 4.727.52.299.023.619.024.917.047 2.275.081 4.578.017 6.843-.233.44-.036.868-.083 1.318-.153 2.373-.298 4.729-.782 7.025-1.409.515-.116 1.017-.286 1.519-.435 1.322-.407 2.653-.869 3.949-1.386l1.219-.503a48.18 48.18 0 0 0 6.844-3.586c.54-.327 1.059-.674 1.565-1.033.648-.44 1.273-.901 1.886-1.374a37.34 37.34 0 0 0 2.802-2.374c.364-.343.717-.674 1.048-1.027a39.72 39.72 0 0 0 5.503-6.83 33.71 33.71 0 0 0 1.121-1.834c13.003-22.495 6.66-56.793 2.905-79.714-1.899-11.609-3.275-23.069-3.694-34.594 3.339 11.783 9.692 22.971 16.844 32.281 2.361 3.067 5.036 5.616 7.974 7.771a42.72 42.72 0 0 0 3.358 2.185c3.733 2.174 7.822 3.762 12.149 4.868a85.21 85.21 0 0 0 3.4.772c.233.047.477.083.721.12 1.975.355 4.022.542 6.064.597 1.281.025 2.582.004 3.869-.093 2.289-.162 4.562-.49 6.761-1.035 1.04-.244 2.058-.508 3.05-.861 1.779-.576 3.455-1.292 5.071-2.128.9-.481 1.777-1.006 2.618-1.585a23.5 23.5 0 0 0 4.878-4.339c.361-.453.721-.906 1.047-1.391.392-.509.727-1.049 1.04-1.611.292-.517.561-1.055.798-1.581.298-.683.573-1.386.792-2.1.162-.446.268-.924.385-1.391.75-3.058.804-6.512.016-10.369-2.228-10.892-8.797-20.232-15.324-28.977-7.784-10.414-15.316-20.869-22.097-31.988-8.517-13.964-14.253-28.912-13.918-45.436a63.28 63.28 0 0 1 .226-3.912c.011-.011 0-.022 0-.022l.346-2.581c-.003-.088-.005-.154-.029-.22l-.001-.022c1.651-11.68 6.67-22.19 12.977-32.135-.001-.022.01-.033.032-.034l8.335-9.967c10.389-12.295 19.339-25.767 21.068-42.137.245-2.313.182-4.595.02-6.884-.292-1.171-.605-2.319-.952-3.477-.026-.132-.052-.263-.111-.382l-.602-1.889c-.048-.131-.086-.273-.135-.404a60.83 60.83 0 0 0-.633-1.855c-.205.15-.375.354-.487.656l-.835 2.123c-.054.035-.075.058-.118.103l-.043.045c-5.925 8.101-11.433 16.487-17.969 24.123-7.556 8.838-17.017 15.378-27.152 20.88-17.635 9.607-38.041 15.399-58.038 16.831-9.739.702-19.768-.384-28.744-4.35-11.382-5.047-17.141-17.324-21.835-28.048-6.623-15.074-14.101-30.671-29.94-37.779-27.76-12.424-54.356 14.704-57.813 40.738a1.67 1.67 0 0 1-.06.178c.012.033.024.065.025.109-.068.598-.159 1.196-.206 1.794-2.173 25.485 16.635 47.598 38.494 57.996 19.517 9.294 43.945 9.151 64.96 6.815 9.936-1.117 20.009-3.088 29.784-6.085-7.879 4.988-15.782 9.933-23.989 14.358-18.263 9.958-37.985 16.798-58.558 19.804zm31.018-4.758l2.143-.577c-3.052 1.114-6.187 2.065-9.37 2.907 2.426-.719 4.838-1.492 7.227-2.331zM259.037 80.161c18.145 3.371 34.447 12.835 52.033 18.034 5.402 1.6 10.923 2.8 16.478 3.689-13.584.154-27.192-1.422-40.419-4.523-14.161-3.313-27.091-9.489-40.505-14.944l-8.883-3.495c7.128-.629 14.438-.039 21.296 1.239zm-32.564.958c2.642-.836 5.369-1.443 8.136-1.841l12.55 5.008c13.147 5.397 25.781 11.275 39.646 14.652 13.175 3.202 26.756 4.625 40.29 4.615l15.483-.127c4.64.224 9.295.227 13.944.032-3.721.573-7.479 1.004-11.217 1.39-16.854 1.728-33.863.725-50.623-1.455-17.182-2.255-34.084-5.402-50.243-11.827l-21.946-9.005a65.56 65.56 0 0 1 3.98-1.442zm-5.85 2.275c8.047 3.566 16.291 6.74 24.306 9.999 16.164 6.579 33.368 9.539 50.596 11.858 16.929 2.275 34.095 3.019 51.093 1.298 8.532-.851 17.357-2.196 25.781-4.665 2.031-.32 4.059-.683 6.065-1.091l-13.952 3.123c-18.69 3.96-37.846 5.454-56.92 5.036-19.792-.427-39.769-2.801-58.976-7.66-12.569-3.188-24.797-7.468-36.823-12.306 2.595-2.29 5.656-4.144 8.83-5.592zm-10.019 6.701c6.598 2.764 13.256 5.35 20.028 7.678 19.063 6.54 38.717 10.193 58.752 11.98 18.409 1.652 36.947 1.503 55.308-.693 9.153-1.08 18.232-2.765 27.197-4.876l8.551-1.988-5.6 1.804c-19.836 6.391-40.874 10.03-61.737 9.924-21.194-.117-42.672-3.214-63.526-6.817-14.821-2.563-29.545-5.229-43.866-9.418 1.008-2.901 2.735-5.428 4.893-7.594zm-5.715 11.845c.058-.929.228-1.817.42-2.683l3.946 1.262c10.469 3.079 21.47 4.884 32.182 6.974 20.415 3.981 41.238 6.934 62.003 8.124 20.312 1.172 40.463-1.292 60.168-6.267 9.715-2.455 19.042-6.023 28.574-9.013l9.859-3.155c-11.652 5.342-24.394 8.359-36.662 12.354-4.748 1.555-9.472 3.175-14.293 4.512-5.379 1.498-10.828 2.183-16.367 2.804-9.704 1.098-19.267 3.162-29.073 3.183-5.393.01-10.832-.685-16.206-1.084l-17.066-1.079c-10.657-.713-21.205-2.499-31.721-4.298-10.26-1.751-20.542-3.16-30.878-4.512l-4.411-.651c-.441-2.038-.633-4.205-.475-6.471zm7.07 18.335c-2.857-3.062-5.043-6.521-6.195-10.421 8.607 1.463 17.34 2.382 25.715 3.82 10.515 1.798 21.015 3.774 31.612 5.051 10.776 1.316 21.673 1.613 32.489 2.475 9.699.777 18.852.359 28.492-1.013s19.412-2.109 28.824-4.742c9.751-2.721 19.34-6.022 29.065-8.875 4.797-1.402 9.554-2.99 14.205-4.829a95.89 95.89 0 0 1-4.196 2.265c-9.225 4.646-19.261 7.762-29.038 11.036-10.465 3.506-21.18 6.777-32.085 8.587-10.324 1.714-20.779 2.473-31.216 2.756-20.521.556-41.314-.467-61.74-2.429-8.709-.854-17.353-2.073-25.932-3.681zm1.745 1.763c25.355 4.957 51.623 6.09 77.262 6.206 20.907.104 41.308-2.102 61.403-7.972 10.839-3.176 21.782-6.576 32.216-11.007l-8.617 5.023c-3.645 1.541-7.397 2.854-11.002 4.284-8.31 3.281-16.621 6.198-25.3 8.3-16.438 3.998-33.35 5.286-50.21 5.491-17.708.2-35.786.269-53.404-1.52-4.139-.417-8.274-1.044-12.411-1.737-3.628-2.011-7.036-4.371-9.937-7.068zm13.561 8.947c3.249.523 6.485.992 9.739 1.35 18.067 1.972 36.671 1.842 54.82 1.606 16.66-.221 33.311-1.754 49.52-5.689 7.836-1.909 15.337-4.602 22.811-7.492l-6.922 3.578-.011.012c-.01.011-.022.001-.032.012-17.808 4.979-35.233 10.851-53.567 13.862-19.794 3.268-40.379 3.208-59.933-1.44-5.002-1.184-10.833-3.101-16.425-5.799zm118.868-1.3c-.021.023-.054.035-.076.035l-.641.297-.08-.075c.273-.086.536-.16.797-.257zm-174.587 52.527c4.821-7.47 11.447-14.039 18.034-19.062 16.394-12.501 34.434-21.536 55.016-23.594.089.019.156.039.245.058a175.8 175.8 0 0 0-33.872 13.024c-11.394 5.797-21.889 12.756-31.281 21.456-2.827 2.606-5.518 5.341-8.142 8.118zm-6.06 13.125c.82-2.95 1.995-5.845 3.449-8.628 3.232-3.381 6.51-6.72 9.913-9.941 9.525-9.023 20.333-16.202 31.997-22.173 11.404-5.831 23.487-10.47 35.892-13.675l1.925-.481a117.47 117.47 0 0 0 9.514 1.522l-6.359 1.519c-13.354 3.191-26.183 8.627-38.286 15.02-12.341 6.512-24.261 14.444-34.659 23.761-4.684 4.178-9.086 8.579-13.386 13.076zm.851 6.16c-.765.885-1.475 1.802-2.162 2.718.021-2.417.34-4.81.882-7.166 4.433-4.457 8.957-8.828 13.676-12.975 10.499-9.242 22.29-17.06 34.573-23.691 11.838-6.385 24.657-11.787 37.745-14.992 4.323-1.056 8.728-1.971 13.133-2.864a149.86 149.86 0 0 0 10.414.357l-14.064 2.718c-14.419 3.027-28.243 8.384-41.328 15.097-13.258 6.806-26.044 15.274-37.252 25.091-5.545 4.846-10.846 10.114-15.617 15.707zm-2.136 4.537l1.397-1.832c5.024-6.297 11.083-11.964 17.133-17.235 11.242-9.807 24.168-18.037 37.403-24.886 12.931-6.686 26.743-11.734 40.96-14.843 9.682-2.123 19.709-3.133 29.473-5.115l4.025-.396c13.223-1.455 26.542-4.336 39.533-8.189-2.6 1.133-5.246 2.2-7.996 3.106-8.741 2.92-17.792 4.758-26.789 6.606-18.365 3.773-36.838 7.252-54.707 13.049-18.142 5.884-34.556 14.712-49.597 26.408-7.779 6.043-14.557 13.025-20.547 20.831-2.921 3.801-5.661 7.729-8.447 11.636-1.102-3.042-1.698-6.1-1.841-9.14zm3.065 12.167a37.43 37.43 0 0 1-.858-1.958l7.327-9.779c6.442-8.472 13.7-15.965 22.091-22.525 15.534-12.131 32.825-20.778 51.573-26.693 17.896-5.644 36.407-9.002 54.76-12.786 5.906-1.218 12.031-2.509 18.122-4.13l-8.173 3.432a.5.5 0 0 0-.516.072c-.129.092-.247.195-.376.288l-7.829 3.155c-8.108 3.043-16.387 5.242-24.856 7.006-16.567 3.45-32.994 7.778-48.634 14.298-15.095 6.303-29.787 14.799-41.16 26.685-6.241 6.523-11.483 13.918-16.875 21.131-1.11 1.481-2.187 2.972-3.252 4.474l-1.344-2.67zm1.887 3.435l4.997-6.472c5.27-6.855 10.517-13.755 16.57-19.963 12.021-12.325 28.251-20.684 44.11-26.913 14.039-5.519 28.733-9.206 43.481-12.288-6.172 1.866-12.345 3.71-18.419 5.86-13.478 4.783-26.626 10.582-38.814 18.093-12.902 7.931-24.16 17.915-34.012 29.409-4.783 5.582-8.99 11.554-13.13 17.568-1.693-1.18-3.294-2.915-4.783-5.294zm5.628 5.851c3.692-5.216 7.406-10.411 11.528-15.266 10.029-11.819 21.556-22.022 34.668-30.29 12.333-7.78 25.78-13.556 39.464-18.446 7.24-2.595 14.662-4.7 22.014-6.914l4.927-1.45c-4.555 2.056-9.097 4.167-13.57 6.386-.054.013-.076.014-.12.037-.054.035-.108.048-.162.082-2.172.722-4.284 1.585-6.372 2.513-6.647 2.168-13.087 5.3-19.107 8.419-10.838 5.613-22.095 10.855-32.137 17.876-9.707 6.801-19.002 15.398-26.742 24.342-3.892 4.494-7.466 9.221-10.928 14.033-1.154-.206-2.327-.642-3.463-1.322zm10.214.661l3.592-3.856c5.482-5.803 10.974-11.618 16.751-17.123 4.248-4.054 8.712-7.883 13.361-11.475-7.38 8.148-21.127 28.086-33.704 32.454zm59.991-51.453c-.067-.02-.144-.029-.242.008-7.065 3.229-13.682 8.055-19.897 12.658-6.808 5.03-13.357 10.218-19.545 16-6.145 5.759-11.855 11.99-17.521 18.218-1.513 1.66-2.969 3.351-4.414 5.052-1.291.307-2.545.436-3.794.355 2.91-3.812 5.842-7.602 8.933-11.265 7.934-9.425 17.488-17.864 27.354-25.222 9.564-7.128 20.752-11.771 31.145-17.48 1.647-.914 3.319-1.741 4.992-2.545l-4.49 2.716-2.521 1.505zm39.367-16.016l3.111-1.358-1.872 1.131c-9.775 6.053-19.481 12.192-28.966 18.711-9.463 6.495-18.51 13.573-27.569 20.618-2.249 1.738-4.442 3.508-6.622 5.311 12.722-21.625 40.6-35.094 61.918-44.413zm-63.347 46.963c3.214-2.608 6.484-5.163 9.8-7.675 9.129-6.937 18.28-13.875 27.778-20.316 9.141-6.199 18.538-12.03 27.934-17.862 4.628-2.863 9.375-5.466 14.097-8.157.13-.07.249-.151.379-.222l5.961-2.576-10.057 7.905c-11.261 8.528-22.166 17.497-33.209 26.294-10.311 8.222-20.966 15.716-32.099 22.784l-14.295 9.167c.919-3.261 2.186-6.369 3.711-9.342zm-4.335 11.878l.303-1.19 14.209-8.801c11.215-6.883 21.895-14.29 32.265-22.414l32.18-25.357c5.781-4.412 11.394-9.216 17.321-13.512l22.814-10.117c-4.111 3.178-8.174 6.465-12.18 9.783-13.427 11.135-27.383 21.604-41.224 32.224-13.904 10.688-27.504 21.576-42.033 31.401-7.879 5.33-16.025 11.629-24.703 16.488.096-2.816.423-5.672 1.048-8.505zm-1.072 9.466c7.766-4.091 15.049-9.424 22.155-14.111 14.655-9.664 28.442-20.249 42.346-30.937l41.35-32.063 18.89-15.119 2.292-1.784 16.89-8.083-12.667 10.417-20.883 16.926c-13.995 11.628-27.761 23.536-41.344 35.637-6.765 6.033-13.417 12.106-20.733 17.473-6.96 5.101-14.29 9.685-21.703 14.085-8.474 5.029-17.215 9.659-26.264 13.593a42.23 42.23 0 0 1-.329-6.034zm.445 7.232c8.533-3.542 16.774-7.913 24.636-12.426 7.472-4.28 14.804-8.82 21.88-13.749 7.486-5.206 14.253-11.173 21.073-17.197l42.192-36.337 21.948-17.788c6.106-4.898 12.414-9.713 18.164-15.051l11.182-5.868c-1.666 1.345-3.401 2.604-5.158 3.863-3.611 2.599-6.737 5.547-9.912 8.661-7.023 6.902-14.689 13.008-21.884 19.706-15.011 13.989-28.915 29.122-43.983 43.058-23.142 21.411-49.299 38.972-78.885 49.11-.549-1.945-.978-3.95-1.253-5.982zm1.48 6.858c29.137-9.363 55.105-26.631 77.834-47.191 15.57-14.084 29.852-29.462 45.057-43.909 7.448-7.081 15.494-13.387 22.838-20.586 3.646-3.571 7.359-6.758 11.498-9.738 2.705-1.952 5.344-3.924 7.332-6.57a427.48 427.48 0 0 0 11.325-6.545l-6.781 6.188c-8.291 7.616-16.58 15.275-24.243 23.521-15.198 16.378-28.88 33.92-45.09 49.371-15.653 14.947-32.463 29.899-51.468 40.466-14.844 8.247-30.943 13.524-46.997 18.844a46.6 46.6 0 0 1-1.305-3.851zm1.665 4.722l6.596-2.023c10.15-3.01 20.056-6.399 29.709-10.771 19.209-8.71 35.305-21.553 51.105-35.336 16.584-14.46 31.198-30.487 45.526-47.146 14.955-17.417 31.544-33.09 48.721-48.297l.997-.881 8.614-5.475c-6.935 7.925-13.291 16.326-19.852 24.56-13.842 17.37-29.764 33.176-44.685 49.622-14.846 16.344-30.782 32.05-47.981 45.934-16.36 13.194-34.938 23.306-55.217 28.961-6.646 1.849-13.38 3.38-20.129 4.813a31.52 31.52 0 0 0-1.424.311c-.707-1.411-1.393-2.823-1.98-4.271zm11.373 16.684c-1.56-1.505-3.002-3.112-4.346-4.779 10.469-2.005 20.888-4.186 30.967-7.69 19.448-6.753 37.559-17.666 53.51-30.56 16.854-13.63 31.184-30.244 45.233-46.651 14.614-17.053 29.75-33.639 44.58-50.49l28.754-32.029 14.842-15.428c1.165-1.174 2.352-2.327 3.561-3.48l4.948-3.205c10.341-6.634 21.033-12.64 31.713-18.679l-9.379 6.018c-9.075 5.876-18.067 11.937-26.185 19.095-8 7.055-15.13 15.052-22.015 23.173-28.939 34.142-56.825 69.442-87.798 101.763-17.54 18.307-36.519 35.095-59.662 45.95-11.18 5.25-22.972 10.012-34.765 13.704-4.586 1.45-9.252 2.462-13.958 3.288zm1.262 1.139l3.453-.652c10.245-2.131 20.001-5.702 29.68-9.623 9.385-3.813 18.649-7.61 27.452-12.672 8.826-5.063 17.023-11.142 24.785-17.693 15.88-13.388 30.09-28.94 43.826-44.487 15.044-17.034 29.295-34.727 44.237-51.858 18.164-20.82 34.288-43.68 57.002-59.938 10.888-7.788 22.367-14.702 33.568-22.026 4.008-2.612 7.913-5.32 11.738-8.125-8.301 6.965-17.226 13.046-26.126 19.214-18.048 12.51-33.753 27.537-48.209 44.012-14.839 16.906-28.805 34.524-42.681 52.226-13.737 17.533-28.446 34.027-43.921 50.039-9.658 9.987-19.726 19.591-30.701 28.11-11.168 8.68-23.368 15.474-36.252 21.242-14.395 6.446-29.38 11.378-44.723 14.799-1.085-.803-2.128-1.674-3.128-2.568zm-23.66 15.671c3.643.764 7.314 1.362 10.99 1.794l-4.75-.199c-11.635-.604-23.194-2.611-34.646-4.732-8.89-1.664-17.519-3.468-26.138-5.968 18.096-2.209 37.328 5.45 54.544 9.105zm-64.157-6.896a43.85 43.85 0 0 1 5.706-1.575c4.116 1.4 8.22 2.767 12.445 3.799 5.671 1.382 11.49 2.263 17.218 3.356 11.132 2.121 22.322 3.953 33.642 4.71 5.096.353 10.248.351 15.363.252 2.337-.032 4.62-.371 6.856-.819.022 0 .044-.001.055-.013 1.877.05 3.729.034 5.615.006 9.382-.162 20.756-.101 29.842-3.253h.023c.395-.035.781-.059 1.176-.116-6.991 2.102-14.072 3.821-21.508 4.802-14.29 1.887-28.696 2.895-43.097 2.734-15.239-.178-30.37-2.136-45.339-4.859-7.545-1.366-15.079-3.041-22.37-5.429l-2.275-.765c2.245-1.165 4.553-2.1 6.648-2.83zm-8.221 3.664l3.405 1.247c7.31 2.597 14.887 4.271 22.468 5.734 14.708 2.843 29.636 4.653 44.605 4.983 14.814.335 29.625-.786 44.312-2.663 5.657-.725 11.516-1.709 17.295-3.088-15.479 5.003-31.389 8.641-47.453 10.575-16.855 2.025-33.809 1.351-50.526-1.536-8.908-1.553-17.77-3.725-26.305-6.702-4.262-1.494-8.33-3.447-12.418-5.355 1.384-1.203 2.949-2.258 4.617-3.195zm-5.688 4.178c4.52 2.313 9.093 4.548 13.914 6.244 8.28 2.93 16.904 4.923 25.537 6.495 16.888 3.07 33.93 3.719 50.998 1.808 16.552-1.861 32.954-5.615 48.899-10.886-1.296.516-2.604 1-3.912 1.483-16.209 5.965-33.018 10.426-50.178 12.572-17.171 2.157-34.585 1.608-51.553-1.878-12.782-2.64-24.655-7.186-36.404-12.32.687-1.279 1.63-2.446 2.699-3.518zm-3.567 5.312c11.363 5.477 23.679 9.412 35.737 12.164 17.457 3.945 35.474 4.397 53.188 2.322 17.363-2.02 34.366-6.643 50.774-12.591 4.95-1.794 9.872-3.763 14.771-5.731-7.924 3.942-16.104 7.473-24.23 10.99-14.272 6.178-29.136 11.095-44.55 13.338a117.64 117.64 0 0 1-48.828-3.235c-12.993-3.693-25.079-9.72-37.442-15.066a10.76 10.76 0 0 1 .58-2.191zm-.78 5.187c-.041-.572-.037-1.124.001-1.665 12.158 5.837 24.366 11.53 37.287 15.39 15.917 4.745 32.886 5.562 49.282 3.32 15.595-2.117 30.607-7.238 45.035-13.376 7.3-3.116 14.503-6.515 21.708-9.849-8.017 4.838-16.149 9.503-24.491 13.822-15.677 8.11-32.115 13.133-49.76 14.268-17.072 1.117-34.274-.729-50.321-6.749-7.783-2.913-15.217-6.654-22.608-10.396l-5.991-3.093c-.062-.549-.113-1.11-.142-1.672zm.509 3.789l5.944 3.006c7.718 3.985 15.584 7.745 23.766 10.734 15.607 5.714 32.461 7.064 48.967 6.164 17.045-.95 33.069-5.806 48.322-13.35l5.285-2.697-8.861 5.009c-14.334 7.999-29.385 13.617-45.83 15.022-16.038 1.382-32.09-1.076-47.181-6.542-9.789-3.554-19.18-8.081-28.703-12.261-.747-1.619-1.322-3.332-1.709-5.085zm7.047 12.865c-.48-.514-.949-1.039-1.408-1.576-1.147-1.352-2.165-2.798-3.02-4.347 9.243 4.41 18.446 8.931 28.081 12.468 15.026 5.513 31.087 7.551 47.021 6.372 13.259-.994 25.771-4.974 37.645-10.621-.011.011-.033.012-.044.024-2.739 1.578-5.536 3.08-8.427 4.432a94.42 94.42 0 0 1-36.497 8.917c-13.826.571-27.076-2.893-40.118-7.102-7.837-2.537-15.555-5.474-23.233-8.567zm31.542 17.485c-10.883-2.227-20.847-7.099-28.781-14.663 6.227 2.567 12.526 4.944 18.949 7.096 13.261 4.456 26.707 7.847 40.785 7.599 16.558-.295 32.347-5.628 46.918-13.447l-9.38 6.338c-.068-.064-.158-.105-.277-.046-21.562 9.944-44.917 11.882-68.214 7.123zm-16.743 84.653c3.062-14.759 11.559-27.886 21.265-39.132 9.802-11.349 21.703-20.218 33.819-28.929l23.608-16.573-8.158 7.291-18.458 17.212c-6.09 5.746-12.502 11.083-18.65 16.732-12.06 11.091-20.131 24.811-27.426 39.299-2.559 5.102-5.172 10.217-7.496 15.433.242-4.111.788-8.001 1.496-11.333zm-1.671 15.806c2.44-5.727 5.404-11.239 8.214-16.769 7.444-14.669 15.404-28.727 27.442-40.182 5.735-5.459 11.961-10.393 17.731-15.82l18.38-17.22c6.073-5.591 12.263-10.988 18.725-16.128 5.764-4.578 11.887-8.626 17.79-12.987.022-.001.043-.024.054-.035l30.644-19.681c-6.803 5.184-13.437 10.463-19.94 16.079-8.465 7.324-17.77 13.604-26.5 20.594-16.922 13.544-33.734 27.768-48.894 43.284-14.967 15.333-26.009 32.657-33.353 52.784-2.482 6.798-5.514 13.294-8.601 19.781-1.211-4.317-1.684-9.034-1.692-13.7zm2.476 16.102c2.659-5.072 5.139-10.227 7.239-15.524 3.914-9.922 7.534-19.714 12.869-28.987 11.119-19.367 27.825-34.823 44.461-49.383 8.442-7.367 16.941-14.681 25.657-21.748 8.707-7.033 18.011-13.336 26.544-20.595 8.331-7.066 16.659-13.855 25.45-20.34 6.42-4.731 12.578-9.751 18.826-14.686 1.541-1.142 3.068-2.339 4.529-3.556l3.089-2.361c1.076-.83 2.197-1.638 3.341-2.425l-6.156 5.428c-8.122 7.026-16.807 13.352-24.687 20.69-8.203 7.613-15.444 16.617-24.266 23.5-4.143 3.212-8.663 5.984-13.001 8.949-4.737 3.253-9.094 6.991-13.497 10.686-16.484 13.805-33.616 27.686-47.827 43.899-6.381 7.289-11.991 15.259-16.6 23.803-4.943 9.151-7.872 19.14-12.109 28.61-3.077 6.839-6.756 13.434-11.237 19.47-1.059-1.676-1.934-3.5-2.625-5.43zm3.551 6.768c2.955-3.77 5.581-7.826 7.914-12.071 5.138-9.223 8.289-19.22 12.521-28.844 8.482-19.38 22.689-35.02 38.194-49.058 8.616-7.803 17.403-15.424 26.27-22.926 4.069-3.452 8.114-6.948 12.332-10.217 4.497-3.5 9.375-6.493 14.045-9.744 8.683-6.073 15.465-14.291 23.026-21.607 7.326-7.088 15.151-13.409 23.006-19.83l-6.998 6.647c-16.649 15.531-32.908 31.513-50.586 45.887-17.078 13.868-33.902 28.402-49.378 44.049-14.45 14.6-25.202 32.344-32.211 51.589-2.907 7.959-6.528 15.015-11.646 21.822-1.575 2.113-3.263 4.121-5.008 6.097-.526-.579-1.02-1.17-1.481-1.794zm8.611-.456c-1.504 1.582-3.09 3.023-4.744 4.4-.418-.306-.815-.657-1.19-.987 2.588-2.831 5.018-5.788 7.278-8.884 5.715-7.786 8.636-16.352 12.232-25.183 8.174-20.033 20.964-36.851 36.543-51.696 16.542-15.76 34.223-30.045 51.521-44.947a865.3 865.3 0 0 0 48.259-44.862c5.693-5.711 11.606-11.132 17.403-16.747l1.689-1.644a45.01 45.01 0 0 1 1.882-1.164l-2.515 3.391c-6.732 8.756-15.607 15.674-23.237 23.588-7.854 8.153-15.264 16.744-23.208 24.834-8.169 8.306-16.83 16.044-25.719 23.569-16.705 14.132-33.913 28.049-48.425 44.515-6.797 7.733-13.639 16.128-19.282 24.772-5.728 8.757-8.903 18.644-13.475 27.992-3.582 7.243-9.52 13.238-15.012 19.053zm-2.905 5.653c-.113-.062-.214-.114-.305-.199 2.834-2.409 5.35-5.116 7.942-7.836 3.414-3.575 6.646-7.298 9.426-11.381 2.81-4.162 4.666-8.833 6.623-13.43 1.969-4.587 3.972-9.141 6.322-13.541 2.777-5.198 6.49-9.753 10.055-14.424 6.655-8.743 13.54-17.162 21.295-24.959 15.766-15.889 33.603-29.451 50.262-44.332 16.862-15.075 31.014-32.731 47.432-48.222 5.181-4.867 10.116-9.837 14.491-15.395.047.087.126.139.215.159-2.95 3.945-6.046 7.774-9.257 11.496-7.229 8.354-15.277 15.983-22.813 24.049l-23.161 24.92c-8.02 8.467-16.503 16.266-25.494 23.717-8.357 6.933-16.795 13.727-24.648 21.24-8.088 7.719-14.829 16.531-21.34 25.6-2.754 3.851-5.699 7.609-8.103 11.702-2.677 4.521-4.635 9.438-6.797 14.208-4.889 10.803-11.697 19.893-20.633 27.673-3.669 3.185-7.591 6.07-11.512 8.955zm2.702 1.336c-.224-.081-.436-.174-.682-.276-.145-.051-.28-.134-.415-.196 11.712-8.576 22.56-18.283 29.509-31.216 2.298-4.299 4.147-8.826 6.199-13.228 2.446-5.209 5.507-9.798 8.864-14.429 6.535-9.026 13.083-17.975 20.922-25.929 15.783-16.021 34.589-28.611 50.235-44.783 7.898-8.154 15.513-16.553 23.218-24.867 7.566-8.166 15.566-15.904 23.065-24.134 2.023-2.228 4.012-4.509 5.922-6.822l-6.157 8.418c-13.51 17.746-28.883 33.831-44.096 50.088-15.5 16.586-33.009 31.12-48.715 47.47-15.236 15.871-26.67 34.046-38.211 52.632-5.252 8.455-13.421 14.71-21.26 20.59-2.831 2.177-5.626 4.407-8.398 6.682zm4.066 1.246c-.843-.149-1.678-.375-2.492-.647l11.831-9.341c8.375-6.361 15.006-13.437 20.394-22.47 11.547-19.414 24.993-37.433 41.147-53.257 16.207-15.881 33.082-30.901 48.649-47.445 15.301-16.26 30.333-32.665 43.445-50.762l10.121-14.106-8.836 15.288c-5.531 9.688-11.67 19.021-18.974 27.476-6.814 7.888-14.428 14.941-21.059 23.065l-4.137 5.054c-.08-.074-.214-.114-.332-.011-5.894 4.968-10.634 11.53-16.024 17.077-6.16 6.322-13.026 11.939-19.321 18.155-5.868 5.783-11.485 11.845-16.83 18.119-5.547 6.489-11.548 12.597-17.163 19.022-5.042 5.768-9.574 11.927-13.621 18.412-4.96 7.937-9.051 15.792-16.241 21.982-6.363 5.468-13.371 10.119-20.557 14.389zm6.651.314c-1.473.158-2.94.173-4.412.011 5.939-3.602 11.663-7.361 17.214-11.711 6.39-4.995 10.855-10.832 14.988-17.75 4.498-7.537 9.203-14.837 14.808-21.593 5.455-6.597 11.478-12.705 17.173-19.079 5.781-6.42 11.394-12.933 17.481-19.088 4.583-4.616 9.406-8.942 14.172-13.344l-3.666 4.3c-5.22 6.049-10.667 11.884-16.137 17.699-10.62 11.309-19.536 23.423-28.061 36.375-4.384 6.661-8.64 13.506-13.497 19.852-4.805 6.267-10.73 11.633-17.133 16.253-4.095 2.957-8.511 5.571-12.93 8.075zm30.419-19.144c-6.661 7.198-16.04 15.61-26.198 18.356l5.432-3.243c13.314-8.165 22.313-19.774 30.865-32.572 9.53-14.296 18.84-28.221 30.541-40.868l14.996-16.139-7.837 10.348c-5.368 7.256-12.374 15.37-17.608 24.056-.167-.072-.354-.055-.492.115-10.082 13.244-18.341 27.621-29.699 39.947zm23.81-16.812c.214-2.235.405-4.514 1.085-6.654 1.088-3.532 2.475-6.996 4.201-10.251 1.747-3.278 3.786-6.389 5.814-9.488a191.07 191.07 0 0 1 6.396-9.22c2.241-3.007 4.572-5.95 6.87-8.904l6.752-8.779c.265-.351.552-.68.805-1.041 12.629-16.691 26.142-32.981 39.733-48.899 4.698-5.491 9.819-10.5 14.666-15.786l-.137.214c-4.581 6.326-9.525 12.377-14.367 18.501-9.587 12.192-18.64 24.862-27.076 37.854-4.402 6.773-9.89 12.72-14.709 19.208l-14.165 19.653c-4.475 6.213-8.681 12.571-12.874 18.983l-2.994 4.609c0 .022 0 .022 0 0v.022c-.011-.011 0-.022 0-.022zm-.196 3.834c6.017-9.682 12.238-19.216 18.985-28.491l14.139-19.443c4.452-5.914 9.395-11.325 13.485-17.513 8.728-13.168 17.885-26.018 27.675-38.425l9.872-12.565-2.175 3.667c-5.478 9.311-10.503 18.961-16.544 27.915-5.59 8.245-12.388 15.614-17.988 23.892l-18.22 26.238c-5.784 8.383-11.185 16.997-17.194 25.234-3.01 4.124-5.884 8.354-9.018 12.382l-2.308 2.965c-.524-1.858-.721-3.837-.709-5.856zm3.572 11.488c-1.043-1.212-1.804-2.566-2.359-4.027l-.011-.01 3.737-4.49c3.246-3.966 6.141-8.24 9.173-12.365 6.307-8.555 11.95-17.563 18.031-26.287l17.496-25.1c5.653-8.314 12.618-15.655 18.16-24.008s10.329-17.202 15.365-25.859c5.38-9.253 11.075-18.339 16.623-27.499l15.457-25.729 1.756-3.013-12.685 24.823c-4.971 9.273-10.528 18.189-15.601 27.388-5.137 9.29-9.736 18.826-15.052 28.033-10.703 18.581-20.366 37.945-32.656 55.552-6.135 8.759-13.134 16.752-20.404 24.555-5.607 6.006-11.651 11.795-17.03 18.036zm5.662 2.144l-1.672 1.51a20.82 20.82 0 0 1-2.824-2.39c5.83-5.947 11.431-12.152 17.125-18.183 7.359-7.762 14.292-15.753 20.517-24.47 12.279-17.276 21.761-36.424 32.407-54.717 5.361-9.186 10.061-18.671 15.13-28.002 5.006-9.241 10.584-18.158 15.646-27.368l3.765-7.027c-7.802 17.218-14.664 34.848-22.567 52.036-9.283 20.19-20.383 39.104-32.565 57.667-6.244 9.513-12.291 19.273-20.016 27.675-7.691 8.391-16.477 15.714-24.946 23.269zm2.096 3.737c-.807-.393-1.593-.808-2.348-1.302 6.145-5.075 12.069-10.485 17.874-15.858 8.311-7.66 15.33-16.04 21.634-25.389 12.165-18.066 24.081-36.301 33.829-55.778 9.934-19.858 18.065-40.528 26.991-60.839 6.676-15.219 13.783-30.396 21.522-45.152-10.547 22.723-18.412 46.827-26.414 70.461-7.156 21.157-16.254 41.264-26.587 61.047-5.306 10.199-11.107 20.083-18.588 28.864-7.182 8.462-15.774 15.624-23.673 23.392-4.65 4.575-9.346 9.084-14.431 13.165-3.181 2.574-6.616 4.826-9.809 7.389zm27.258 2.744c-2.778.389-5.572.656-8.392.747l-.684.022c13.496-6.306 25.819-15.762 35.981-26.196 7.622-7.837 14.8-16.067 21.14-24.976 6.181-8.717 10.659-18.602 15.312-28.174 4.497-9.29 8.887-18.445 11.741-28.399 3.052-10.644 4.922-21.669 7.385-32.438 2.365-10.391 3.889-20.864 6.822-31.108 3.011-10.532 6.072-21.254 9.819-31.546a173.56 173.56 0 0 1 3.16-8.001c-2.868 9.171-5.179 18.523-6.937 27.901a1492.39 1492.39 0 0 1-13.572 64.419c-4.861 20.829-12.234 40.395-23.69 58.548-11.791 18.716-26.796 35.617-44.2 49.264-4.465 3.488-9.112 6.782-13.885 9.937zm17.001-4.324c-4.425 1.644-8.984 2.906-13.633 3.763 30.446-19.995 54.744-48.956 69.455-82.371 8.312-18.857 12.108-39.53 16.443-59.57 4.545-21.062 7.618-42.606 13.763-63.278.546-1.882 1.158-3.766 1.793-5.607-.904 3.405-1.708 6.862-2.399 10.381-2.006 10.235-3.413 20.584-4.965 30.881-3.213 21.306-8 42.353-13.602 63.152-5.788 21.477-14.437 41.514-27.156 59.829-11.213 16.138-24.88 30.062-39.699 42.82zm71.145-90.787c-8.553 31.792-25.658 62.814-53.341 81.616-3.972 2.71-8.143 5.041-12.48 7.002 9.258-8.034 17.873-16.884 25.604-26.092 13.561-16.181 24.548-34.518 31.779-54.365 7.139-19.635 11.779-40.479 15.869-60.942l1.308-6.936c-1.809 20.035-3.453 40.076-8.739 59.717zm23.391 1.877c-9.939-11.58-12.726-26.734-14.008-41.44l-.001-.022 1.624-15.551c.126 5.246.429 10.487 1.148 15.67.722 5.25 2.342 10.293 3.688 15.401 2.801 10.851 10.299 19.907 16.4 29.129l5.785 8.626c-5.61-2.907-10.623-7.134-14.636-11.813zm17.884 13.34l-6.769-10.083-9.338-14.456c-3.297-5.033-5.88-9.527-7.417-15.412-1.398-5.348-2.947-10.582-3.687-16.062-.71-5.195-.868-10.429-.961-15.666l-.346-17.097-.004-.132.181-1.903c1.858-19.221 5.392-38.11 11.926-56.324-2.426 9.179-4.184 18.579-6.172 27.678-3.472 16.041-5.731 32.77-4.03 49.151 1.656 15.996 7.813 30.654 14.764 44.989 3.699 7.568 8.026 14.807 13.615 21.156 2.028 2.328 4.27 4.45 6.619 6.459-2.892-.381-5.697-1.172-8.381-2.298zm18.068 2.016c-2.313.461-4.613.635-6.888.533-2.488-2.203-4.911-4.474-7.216-6.848-6.255-6.481-10.703-14.709-14.572-22.757-6.859-14.228-12.501-28.66-14.108-44.503-1.611-15.998.967-32.407 4.364-48.048-2.054 13.204-3.008 26.604-2.42 39.954.732 16.776 4.231 33.837 12.345 48.642 7.187 13.103 17.684 23.495 29.053 32.888-.186.061-.372.1-.558.139zm14.131-8.787c-9.398-8.85-18.725-17.868-27.085-27.668-11.008-12.901-15.712-27.993-16.982-44.696-.353-4.754-.553-9.535-.576-14.322.296 4.701.834 9.372 1.635 13.989 2.935 17.003 11.294 31.204 21.737 44.708 5.838 7.565 12.592 14.108 19.885 20.28l4.116 3.451c-.779 1.492-1.67 2.922-2.73 4.258zm-18.878-50.768c8.294 7.452 17.232 14.674 21.981 25.043.166.37.333.739.477 1.11-6.312-5.189-12.051-11.059-17.318-17.319-3.786-4.51-7.293-9.249-10.65-14.104 1.757 1.796 3.601 3.545 5.51 5.27zm-14.516-15.611c5.177 8.954 11.609 17.481 18.231 25.396 5.866 7.057 12.416 13.429 19.637 19.085a24.32 24.32 0 0 1 .818 7.519c-4.335-4.062-8.5-8.328-12.515-12.731-10.854-11.903-21.345-25.174-27.274-40.303l-1.488-4.022a66.27 66.27 0 0 0 2.591 5.056zm-3.011-.344c5.507 14.691 15.798 27.583 26.135 39.171 4.899 5.489 9.997 10.629 15.401 15.373-.273 2.116-.813 4.174-1.621 6.131l-2.641-2.198c-7.158-6.088-13.807-12.446-19.714-19.778-10.726-13.362-19.105-27.838-22.215-44.813-1.125-6.097-1.712-12.288-1.924-18.491 1.254 8.398 3.607 16.649 6.579 24.605zm-8.319-56.449c-1.748 17.187-2.576 34.808-1.222 52.06 1.264 16.163 6.24 30.827 16.545 43.453 5.434 6.674 11.73 12.702 17.925 18.678l10.617 10.035a24.7 24.7 0 0 1-5.302 4.518c-3.543-3.448-6.883-7.112-10.19-10.788-6.34-7.052-12.562-14.208-17.967-22.007-9.384-13.495-13.65-28.711-13.993-45.037-.36-17.218.862-34.962 3.409-51.977.271-1.84.586-3.681.946-5.502l-.768 6.567zm4.535-16.242a43.84 43.84 0 0 0-.688 2.582l.927-5.071-.239 2.489zm-6.858 16.052c-2.599 17.458-3.703 35.783-3.13 53.413.528 15.922 5.384 30.601 14.36 43.756 5.166 7.598 11.295 14.602 17.504 21.361 3.522 3.834 6.958 7.738 10.767 11.243-1.41.752-2.922 1.386-4.54 1.858-10.497-9.389-20.515-19.311-27.792-31.451-8.935-14.932-12.213-32.663-13.068-49.832-.88-17.598 1.335-35.308 4.891-52.532 1.8-8.762 4.145-17.376 6.936-25.872.14-.446.301-.914.453-1.349-2.807 9.699-4.922 19.64-6.381 29.405zm-20.9 18.107c-3.042 10.247-6.44 20.44-8.826 30.875-2.384 10.479-4.268 21.086-6.53 31.594-2.388 11.053-4.543 22.132-8.645 32.711-3.865 10.053-9.012 19.696-13.863 29.296-9.878 19.525-24.491 37.262-41.448 51.116-8.403 6.869-17.614 12.298-27.255 17.045l-.022.001c-2.398-.132-4.835-.45-7.19-.969 16.491-9.846 32.251-20.119 45.157-34.735 14.183-16.025 25.031-34.578 33.663-54.073 8.685-19.597 15.301-40.064 21.307-60.633 6.123-21.014 11.355-42.33 20.501-62.305a281.29 281.29 0 0 1 5.824-11.893c-4.869 10.373-9.392 20.899-12.673 31.97zm15.75-42.185l-4.393 8.405c-4.994 9.593-9.507 19.402-13.136 29.591-7.118 19.954-12.062 40.621-18.31 60.856-12.855 41.65-30.819 85.97-65.596 114.256-9.318 7.572-19.614 13.885-29.752 20.303-1.403-.395-2.797-.869-4.128-1.432 7.091-5.15 14.077-10.142 20.496-16.263 7.993-7.617 16.333-15.058 23.926-23.092 14.834-15.715 24.528-36.139 33.617-55.528 9.13-19.479 15.779-39.936 22.563-60.309 6.974-20.965 15.004-41.367 25.39-60.887 2.879-5.443 6.05-10.698 9.323-15.9zm-34.342 35.233c-.042.068-.095.124-.126.181s-.063.09-.095.146l-1.34 1.18c.435-.533 1.003-1.026 1.561-1.507zm-3.684 3.065c-.007.121-.025.232-.021.365-1.033.783-2.1 1.557-3.157 2.319l3.178-2.684zm21.519-25.198a7.89 7.89 0 0 1-.404.454l-.032.034a.91.91 0 0 0-.345.232c-.151.115-.256.295-.315.496l-.459.489-1.875 2.046-3.883 4.075c-10.684 11.014-22.319 21.264-35.198 29.558-6.094 3.927-13.37 8.134-20.977 11.326-2.329.98-4.683 1.873-7.052 2.623l-4.321.78s-.011-.011-.022.001c-10.082 1.684-19.719 2.14-29.107-.269 12.153-1.431 24.117-3.618 35.781-8.221 19.582-7.74 35.629-20.714 51.127-34.675 16.677-14.992 32.073-31.376 46.054-48.894 5.162-6.466 10.142-13.081 15.089-19.728-13.297 20.916-27.333 41.139-44.061 59.673zm58.137-82.401l-5.835 9.511-8.002 9.724-13.478 17.689c-13.377 17.422-28.272 33.635-44.275 48.66-15.992 15.036-32.675 29.168-52.971 37.989-12.825 5.568-26.366 8.07-40.05 9.949a48.04 48.04 0 0 1-5.405-2.053c11.163-1.697 22.207-3.997 32.916-7.808 19.399-6.907 36.747-19.24 52.461-32.292 33.566-27.861 61.406-62.563 86.26-98.183 7.621-10.914 15.163-21.859 23.746-32.021-9.318 12.315-17.343 25.713-25.367 38.835zm65.306-79.699l-.279.23c-.142.038-.273.086-.412.212-.47.478-.974.925-1.467 1.382l-7.444 6.485a92.53 92.53 0 0 0-2.167 1.901l-12.444 11.501c-7.907 7.526-15.394 15.447-22.164 24.017-13.743 17.378-25.28 36.417-38.864 53.922-26.703 34.401-57.161 68.294-94.652 91.132-12.147 7.398-25.07 12.661-38.879 16.087-5.931 1.472-11.938 2.638-17.983 3.662a52.31 52.31 0 0 1-7.491-4.456c28.254-5.639 55.749-16.989 78.65-33.947 16.76-12.414 31.178-27.685 45.401-42.84 15.524-16.542 29.41-34.256 43.436-52.052 19.589-24.87 39.963-49.325 64.125-69.888 11.013-9.381 23.58-16.749 35.031-25.57.513-.16 1.119-.511 1.755-.984l-24.152 19.206zm-73.85 177.675c-1.664-21.345 4.105-43.417 9.953-63.771 6.618-23.115 16.45-44.734 29.652-64.82 6.013-9.152 12.575-17.682 19.5-25.893-5.529 7.405-10.446 15.297-15.189 22.753-11.313 17.818-20.996 36.223-26.988 56.526-5.852 19.88-11.317 40.1-13.437 60.763-.977 9.662-1.302 19.357-1.153 29.048-1.209-4.957-1.965-9.919-2.338-14.606zm64.378-151.765l.499-.943 2.091-2.87-2.59 3.813zm73.862-77.771c.046.065.115.129.182.171a126.18 126.18 0 0 1-2.568 3.47c.822-1.196 1.599-2.412 2.386-3.64zm-134.411 249.62c-.095-11.413.242-22.786 1.439-34.142 2.09-19.879 7.411-39.124 12.833-58.317 5.685-20.249 15.018-38.555 26.168-56.29l4.063-6.342c-5.905 9.744-11.024 19.926-15.386 30.624-3.791 9.29-6.978 18.847-9.708 28.51-2.868 10.197-4.948 20.534-8.072 30.663-3.005 9.705-5.5 19.162-6.062 29.362-.582 10.288-.398 20.695-.031 30.975.234 6.544.612 13.095 1.067 19.633-2.619-4.57-4.701-9.577-6.311-14.676zm7.63 16.894l-.377-10.246c-.422-10.631-.557-21.227-.428-31.876.14-10.638.913-20.789 3.811-31.087l8.475-30.797c5.11-20.639 12.588-40.704 22.68-59.431 4.162-7.702 8.807-15.144 14.005-22.196-8.957 13.572-16.095 28.144-22.78 43.098-8.363 18.615-12.124 39.023-16.444 58.842-4.208 19.22-6.62 38.69-5.396 58.384.696 11.229 1.875 22.398 2.9 33.594-2.43-2.492-4.562-5.279-6.446-8.285zm7.45 9.311c-1.166-16.541-2.971-33.084-2.605-49.642.465-20.355 5.15-40.153 9.582-59.91 2.33-10.466 4.915-20.886 8.457-31.028 3.482-9.963 8.248-19.472 12.86-28.932 4.004-8.171 8.527-15.962 13.502-23.437-.247.537-.517 1.054-.798 1.581-10.938 16.096-17.84 34.565-24.14 52.849-6.885 19.979-11.69 40.156-13.732 61.192-1.948 20.183-.589 39.961 1.135 60.102.633 7.26 1.067 14.504 1.314 21.765-1.996-1.336-3.843-2.853-5.575-4.54zm7.321 5.664c-.157-.083-.27-.168-.417-.262-.016-15.785-2.253-31.685-3.06-47.377-1.067-20.637.729-41.731 4.982-61.934 3.23-15.349 8.019-30.584 13.695-45.351-6.428 18.101-9.461 37.139-11.091 56.253-.891 10.255-.645 20.549-1.57 30.794-.865 9.702-1.012 19.436.085 29.118 1.492 13.321 1.806 26.735.893 40.068-1.204-.403-2.365-.828-3.517-1.309zm4.753 1.677c1.166-12.668.949-25.479-.167-38.106-.936-10.471-1.198-20.589-.292-31.086.88-10.265.789-20.543 1.591-30.816 1.303-16.622 3.986-33.189 8.863-49.11 0 0-.001-.022.01-.033-4.409 16.766-6.267 34.597-7.3 51.728-.651 10.522-.191 20.953 1.262 31.374 1.413 10.235 3.034 20.408 3.425 30.753.451 12.196-.742 24.369-2.079 36.513-1.819-.294-3.597-.7-5.313-1.217zm6.233 1.375c1.803-13.781 3.152-27.624 2.424-41.555-.559-10.394-2.48-20.657-3.754-30.995-1.329-10.712-1.066-21.641-.08-32.384 1.864-20.39 4.438-41.333 11.933-60.527 3.85-9.854 8.828-19.27 14.079-28.431 5.563-9.722 11.46-19.367 18.118-28.363l1.068-1.413 1.788-2.341c1.643-2.072 3.319-4.112 5.064-6.088-.085.091-.159.193-.233.294-12.977 16.493-24.106 34.548-32.269 53.885-7.641 18.118-13.246 37.096-15.756 56.625-2.467 19.141.562 38.004 2.415 57.049 1.223 12.514 1.1 25.026.923 37.596-.126 9.027-.496 18.018-1.053 27.026-1.566-.015-3.126-.152-4.667-.377zm8.44.365c-.937.042-1.884.073-2.811.058 1.453-15.71 1.489-31.596 1.651-47.32.21-19.354-4.015-38.4-4.148-57.754-.114-14.722 2.581-29.569 6.717-43.856-1.338 8.725-1.807 17.708-2.349 26.495-.618 9.849-.601 19.566.247 29.378 1.629 18.898 4.773 37.592 5.576 56.55a277.19 277.19 0 0 1-.825 36.086 72.92 72.92 0 0 1-4.058.363zm5.419-.562c1.272-11.116 1.624-22.368 1.315-33.576-.505-18.934-3.384-37.637-5.253-56.461-1.927-19.605-.892-40.045 2.149-59.525.256-1.619.557-3.217.892-4.805a105.02 105.02 0 0 1 1.081-7.128l1.02-2.89c7.309-20.181 17.485-39.043 30.002-56.459 5.952-8.29 12.493-16.091 19.193-23.766-4.991 6.284-9.847 12.674-14.351 19.351-11.441 16.929-20.474 36.305-26.838 55.705-6.032 18.386-8.949 37.961-8.785 57.281.188 20.39 4.326 40.464 6.383 60.682 1.714 16.777 1.106 33.387.071 50.088-2.219.635-4.518 1.151-6.879 1.503zm8.505-2.03c1.403-14.882 1.386-30.026.345-44.763-1.432-20.316-5.722-40.341-6.593-60.708-.849-20.026 2.1-40.297 7.965-59.416 6.375-20.757 16.37-41.434 28.663-59.294 6.11-8.868 12.798-17.259 19.677-25.535l10.28-12.247 3.599-3.636-2.723 3.431c-13.195 16.566-26.096 33.366-36.448 51.892-19.63 35.131-25.764 76.562-23.171 116.321 1.177 18.262 4.084 36.434 4.16 54.754.057 12.617-.98 25.193-1.862 37.763a45.39 45.39 0 0 1-3.892 1.439zm5.163-2.021c1.298-14.062 2.473-28.153 2.245-42.298-.316-20.253-3.792-40.349-4.46-60.59-.693-20.649 1.827-41.237 6.735-61.274 5.085-20.748 14.022-39.702 25.586-57.583 5.273-8.157 11.021-15.933 16.95-23.582-7.536 11.165-14.315 22.846-20.481 34.761-9.195 17.793-16.489 36.749-21.006 56.277-4.442 19.128-4.882 38.181-2.971 57.643 3.006 30.745 7.9 61.891 4.376 92.648-2.167 1.538-4.506 2.871-6.974 3.999zm14.228-10.599c.684-10.17 1.037-20.374 1.431-30.645.404-9.985-.778-19.555-2.3-29.4-1.64-10.426-1.487-21.009-2.677-31.483-1.127-9.924-2.269-19.605-1.303-29.619.966-9.992 3.04-19.822 5.615-29.524 1.787-6.809 3.715-13.655 5.89-20.399-.69 3.199-1.068 6.498-1.719 9.564a221.03 221.03 0 0 0-3.894 25.817c-.774 8.419-1.338 16.865-1.229 25.322.117 9.041 1.182 18.074 2.246 27.063 2.075 17.714 3.507 35.294 3.997 53.126.187 7.12.183 14.102-.306 21.123a38.92 38.92 0 0 1-5.751 9.055zm7.847-14.804c-.268.924-.548 1.816-.872 2.687.329-5.162.393-10.316.267-15.54-.443-17.381-1.397-34.558-3.36-51.846-.975-8.649-1.983-17.265-2.441-25.942-.46-8.721.006-17.473.716-26.166l.263-3.13c-.273 5.193-.346 10.402-.212 15.571.916 34.662 15.537 69.816 5.639 104.366zm1.105-106.273c-.828-3.425-1.307-6.973-1.776-10.531 1.286 4.602 3.075 9.077 4.481 13.643 1.727 5.635 3.768 11.073 6.193 16.466 2.14 4.762 4.629 9.38 7.516 13.732.395.605.79 1.209 1.14 1.816-8.795-9.311-14.488-22.253-17.554-35.126zm21.765 39.093l-2.563-4.539c-2.76-4.808-5.742-9.355-8.124-14.407-4.253-9.051-6.869-18.618-10.186-28.007a62.21 62.21 0 0 1-3.203-14.071l-.265-2.363.272-2.524a179.19 179.19 0 0 1 1.215-8.433c.176 4.075.527 8.079 1.267 12.191.971 5.44 1.824 10.983 3.528 16.255 1.865 5.786 3.146 11.944 5.49 17.56 5.718 13.713 14.342 25.555 24.902 35.493-4.577-1.66-8.682-4.097-12.333-7.155zm16.532 8.398c-2.156-1.828-4.226-3.768-6.15-5.934-4.052-4.545-8.409-8.948-11.817-14.022-3.384-5.031-6.078-10.889-8.759-16.328-2.386-4.864-2.982-10.316-4.867-15.373-2.019-5.461-3.06-11.009-4.16-16.698-.956-4.977-1.78-9.98-1.934-15.06-.08-2.447-.238-4.945-.164-7.419 2.305-10.896 5.565-21.58 9.674-31.939a5.81 5.81 0 0 0-.111.324c-2.684 7.379-4.988 14.877-6.302 22.641-1.278 7.542-.917 14.91.43 22.433 1.4 7.787 2.189 15.769 4.509 23.371 2.335 7.679 6.026 15.369 9.449 22.615 3.435 7.279 8.375 13.682 13.366 19.94 3.841 4.839 7.968 8.963 12.857 12.411-2.069-.186-4.087-.496-6.021-.962zm12.806 1.018c-.979.065-1.949.096-2.897.105-6.227-3.89-11.14-8.772-15.877-14.707-5.151-6.451-9.889-13.07-13.332-20.614-3.195-7.011-6.564-14.27-8.8-21.643-2.224-7.34-2.822-15.252-4.116-22.81-1.346-7.821-1.182-15.339.264-23.129.384-2.097.846-4.186 1.408-6.245a17.8 17.8 0 0 0-.24 1.784c-.918 8.093.502 16.154 1.369 24.168.891 8.398 2.036 16.502 4.21 24.671 1.909 7.152 4.155 14.172 7.481 20.793 3.89 7.705 10.069 13.858 15.725 20.249 5.679 6.39 11.259 11.768 18.565 16.307l.788.482a40.02 40.02 0 0 1-4.548.589zm23.462-14.617l-7.275-7.65c-5.628-5.851-10.499-12.168-14.966-18.939-8.309-12.659-17.603-25.77-21.873-40.413l-5.965-20.632a51.41 51.41 0 0 1-1.462-7.652c.1.692.221 1.361.343 2.052 2.219 11.951 7.704 23.587 13.832 33.966 3.316 5.651 6.547 11.37 10.134 16.868 3.9 5.985 8.32 11.643 12.576 17.362a478.6 478.6 0 0 1 15.434 22.156c-.166.998-.432 1.967-.778 2.882zM519.943 93.288c5.124 23.307 21.931 43.565 35.928 62.215 6.595 8.787 13.312 18.607 14.35 29.858.119 1.287.126 2.533.021 3.717-3.675-6.18-7.567-12.219-11.783-18.072-7.82-10.854-15.621-21.455-22.373-33.039-6.448-11.064-11.97-22.136-15.439-34.532-1.374-4.941-1.72-9.817-1.535-14.665.237 1.526.506 3.017.831 4.518zm-4.071 8.835c1.611 7.835 4.46 15.375 6.476 23.12 3.944 15.149 13.077 28.045 21.4 41.122 4.172 6.538 8.701 12.833 13.97 18.519 3.442 3.738 7.064 7.261 10.719 10.771-.311.606-.634 1.201-1.023 1.776l-1.885-1.659c-6.087-5.362-12.672-10.101-18.664-15.609-12.395-11.467-20.759-25.822-26.292-41.648-5.036-14.441-7.219-29.008-6.347-44.281.231-4.1.66-8.228 1.211-12.327-.432 6.754-.952 13.51.435 20.216zm-3.5-10.288c-1.25 15.494.806 30.242 5.564 44.979 5.127 15.872 13.215 30.247 25.007 42.13 6.329 6.358 13.698 11.491 20.505 17.292l2.996 2.595c-1.44 1.833-3.22 3.413-5.218 4.725-.179-.083-.325-.155-.494-.249-8.003-4.252-14.816-9.248-20.839-16.046-5.039-5.705-10.041-11.289-14.122-17.742-4.302-6.788-7.531-14.173-10.29-21.694-5.156-14.062-6.008-29.775-5.321-44.645.378-8.043 1.828-16.043 3.459-23.917-.577 4.31-.925 8.535-1.247 12.571zm5.965-17.082c-.045.299-.114.577-.159.877.062-.818.145-1.637.24-2.446-.038.52-.054 1.039-.081 1.569zm-5.749-.751a190.63 190.63 0 0 0-1.073 4.679c-1.669 7.71-3.036 15.553-3.519 23.433-.942 15.485.039 31.767 5.281 46.466 2.489 6.99 5.565 13.762 9.271 20.183 4.231 7.342 9.813 13.47 15.37 19.831 5.853 6.682 12.985 11.977 20.676 16.448-1.639.837-3.36 1.51-5.163 2.043l-.73-.429c-7.829-4.665-13.82-10.129-19.799-16.929-5.132-5.856-10.675-11.478-14.624-18.255-3.807-6.517-5.999-13.891-7.999-21.129-2.176-7.915-3.414-15.784-4.263-23.93-.829-7.871-2.231-15.724-1.661-23.651.548-7.585 2.766-15.037 5.437-22.106.853-2.278 1.818-4.493 2.828-6.688-.033.012-.032.034-.032.034zM556.766-.731c-3.279 8.06-8.563 15.203-13.959 21.941-10.22 12.73-21.195 24.305-29.548 38.464-4.057 6.883-7.628 14.091-10.708 21.505l-2.069 3.895-.695 1.699c-2 4.643-4.483 9.003-6.271 13.738-3.464 9.169-6.051 18.839-8.635 28.277-2.533 9.271-4.489 18.699-5.624 28.233-1.162 9.723-.578 19.224.563 28.905 1.198 10.054 1.394 20.174 2.504 30.231 1.151 10.309 3.304 20.211 3.246 30.648-.07 11.772-.303 23.626-.99 35.441a41.48 41.48 0 0 1-4.477 4.116c4.297-31.743-1.718-64.474-4.478-96.142-1.76-20.217-.06-39.885 5.138-59.501 5.376-20.283 13.959-39.612 24.041-57.963 9.738-17.712 21.228-34.145 33.99-49.793 5.346-6.571 10.511-13.291 14.581-20.759 3.758-6.906 5.71-14.073 6.731-21.684.184-.447.39-.895.552-1.342-.096 6.897-1.113 13.295-3.892 20.092zM397.388-9.08c6.729 12.588 10.832 26.497 20.94 35.777-3.426-1.885-6.694-4.029-9.778-6.599-7.212-6.031-13.432-13.827-19.005-21.356-5.676-7.692-10.05-16.021-13.004-25.114-.662-2.03-1.203-4.097-1.7-6.166 9.479 4.546 17.239 13.526 22.547 23.458zm-24.931-24.495c.583 2.319 1.186 4.594 1.841 6.746 2.919 9.723 7.758 18.445 13.769 26.578 5.884 7.972 12.729 15.945 20.411 22.226 4.318 3.533 9.157 6.167 14.276 8.207a38.33 38.33 0 0 0 6.175 3.329c4.966 2.111 10.285 3.207 15.715 3.637a80.53 80.53 0 0 1-5.878.025c-16.421-.559-31.966-8.46-44.521-18.708-12.986-10.609-20.542-26.943-25.78-42.513-1.234-3.677-2.04-7.446-2.594-11.255 2.272.312 4.464.914 6.586 1.728zm-8.635-1.981c.565 3.798 1.359 7.534 2.457 11.105 5.02 16.35 13.594 33.081 26.859 44.166 12.109 10.108 27.642 17.612 43.483 18.675 6.777.453 13.486-.14 20.144-1.294 3.841-.29 7.662-.811 11.403-1.451-4.178 1.448-8.393 2.754-12.717 3.766-19.464 4.581-40.72 1.521-57.953-8.752-9.156-5.461-16.512-13.892-22.777-22.37-5.987-8.09-11.355-17.137-14.6-26.695-1.867-5.532-2.866-11.169-3.371-16.856 2.426-.377 4.783-.475 7.072-.296zm-9.165.728c.285 2.98.69 5.945 1.293 8.882 3.852 18.44 15.292 35.464 28.482 48.614 13.395 13.364 32.161 19.903 50.869 20.575 14.644.539 28.846-4.036 42.401-9.539 13.655-3.08 26.906-8.077 39.185-14.818-2.189 1.538-4.413 3.022-6.706 4.442-8.997 5.565-18.582 10.322-28.404 14.259-18.271 7.344-38.445 11.452-58.153 9.543-40.743-3.928-69.157-41.624-72.422-80.687-.014-.099-.007-.198-.021-.297 1.179-.369 2.337-.716 3.476-.973zm-6.035 1.994l.621-.252c.377 4.499.986 8.98 1.935 13.417 3.897 18.074 13.976 34.977 27.155 47.819 28.158 27.413 69.894 24.215 103.894 10.735 16.194-6.427 32.297-15.311 45.758-26.757 9.801-6.948 17.674-15.873 24.527-25.648-4.404 7.39-9.477 14.217-15.585 20.438-7.677 7.827-16.646 14.23-25.957 19.97-17.401 10.724-36.666 18.696-56.418 23.926l-1.871.469c.12-.037.252-.063.383-.112.163-.06.079-.289-.086-.251-15.041 3.533-30.446 2.323-45.48-.718-16.278-3.288-28.919-13.809-40.528-25.158-6.015-5.894-10.426-11.95-13.408-19.872-2.704-7.192-4.3-14.906-5.769-22.437-.937-4.746-1.413-9.551-1.625-14.364a23.17 23.17 0 0 1 2.454-1.205zm-4.504 2.275c.284 4.988.897 9.943 1.915 14.807 1.706 8.03 3.456 16.081 6.539 23.713 2.962 7.305 7.655 12.9 13.247 18.333 6.231 6.052 12.964 11.614 20.148 16.488 6.497 4.4 13.586 7.005 21.238 8.598 10.661 2.213 22.431 3.585 33.609 2.328-14.781 2.388-29.888 2.206-44.394-2.221-18.817-5.732-35.808-18.428-46.061-35.259-8.379-13.77-9.866-29.33-9.107-45.029.951-.604 1.892-1.198 2.866-1.759zm-4.88 3.247c-.188 6.106-.045 12.224.737 18.298 2.179 17.148 10.457 31.914 23.112 43.56 13.565 12.476 31.439 20.103 49.692 22.036 18.407 1.95 36.951-2.082 54.361-7.755 17.977-5.867 35.312-14.174 51.043-24.689 16.075-10.747 31.127-25.19 38.263-43.545.084-.135.169-.248.252-.383-2.448 5.782-5.111 11.428-8.477 16.799-6.374 10.245-15.298 18.741-24.732 26.118-10.951 8.584-23.026 15.474-35.206 22.201-9.232 4.447-18.796 8.177-28.934 10.878-19.137 5.122-39.599 6.481-59.009 2.181-20.344-4.513-39.488-15.893-51.519-33.107-10.237-14.636-12.197-32.862-12.291-50.364.869-.767 1.76-1.513 2.708-2.228zm36.334 95.096c-26.976-4.595-52.276-25.868-54.654-53.908 3.453 9.518 8.616 18.351 15.221 26.101 8.807 10.348 20.137 19.213 32.767 24.318 6.07 2.461 12.42 4.053 18.873 5.057-4.082-.364-8.158-.871-12.207-1.567zm28.544 2.261c-11.363-1.054-22.722-2.682-33.454-6.712-12.853-4.844-24.095-14.054-33.023-24.365-8.011-9.259-13.53-20.265-16.801-31.984.236-4.288 1.114-8.508 2.539-12.514l.787 3.173c3.788 14.085 9.193 27.653 17.623 39.613 8.707 12.369 20.582 21.04 34.789 26.127 6.864 2.458 13.96 3.915 21.067 5.383 2.255.467 4.486.913 6.737 1.27-.099-.008-.187.017-.264.009zm7.448-.264c-4.217-.426-8.392-1.283-12.547-2.185-7.332-1.593-14.642-3.187-21.738-5.67-14.404-5.037-25.985-14.18-34.685-26.649-7.845-11.261-12.642-24.133-16.355-37.249-.623-2.208-1.17-4.429-1.661-6.664a46.93 46.93 0 0 1 4.703-8.349c.458 6.626 1.565 13.197 3.164 19.631 3.984 16.02 13.019 30.32 25.01 41.557 18.601 17.409 45.086 25.241 70.518 23.732-5.42.904-10.904 1.534-16.409 1.845zm27.796-4.101c-28.362 3.657-58.235-2.521-79.944-21.903-12.36-11.026-21.121-25.711-25.204-41.738-1.782-6.991-2.808-14.127-3.174-21.33 1.113-1.393 2.305-2.733 3.565-3.988l.032 1.995c.208 9.127 1.155 18.24 3.45 27.079 4.931 19.044 18.404 33.785 35.05 43.658 29.378 17.423 65.407 15.481 96.942 4.883l-2.491 1.107-2.401 1.468c-8.31 3.623-16.839 6.592-25.825 8.77zm-.359 13.381l-4.878 5.045c-7.724 8.06-15.289 16.292-22.74 24.609l-44.628 50.359c-15.053 16.748-28.953 34.385-45.12 50.132-15.525 15.131-33.775 27.538-53.494 36.495-11.055 5.025-22.561 8.388-34.413 10.957l-8.492 1.765a49.15 49.15 0 0 1-3.74-5.814c4.746-.915 9.554-1.644 14.131-2.698 10.27-2.363 20.242-5.411 29.862-9.772 18.427-8.331 34.225-20.834 49.155-34.258 16.527-14.854 31.117-31.267 46.232-47.488l22.843-24.513c7.256-8.221 13.842-17.028 20.724-25.558 4.146-5.131 8.451-10.136 12.972-14.937l21.586-14.324z" fill="#000"/><path d="M365.389 349.376c.319 4.038 1.992 7.656 4.398 10.766-5.415.717-10.79 2.987-12.864 7.753 1.597 2.287 3.826 4.013 6.125 5.526 3.866 2.533 8.135 3.542 12.468 3.5-.336.497-.65 1.036-.918 1.619-1.969 4.244-5.195 22.781 2.532 21.924 4.396-.496 8.909-6.93 11.555-10.027 2.434-2.826 3.759-5.494 4.384-8.669 3.453 3.406 6.353 5.397 11.964 5.976 2.745.286 5.492.296 8.254.427.861-6.415-1.538-13.044-5.927-17.755-2.07.089-4.237-.061-6.457-.474a42.27 42.27 0 0 1-12.172-4.227c-.778 1.857-3.241 3.095-5.153 1.304-1.536-1.439-1.156-3.349-.003-4.512-6.213-4.497-11.208-10.567-14.907-17.474-2.131-.052-3.549 1.097-3.279 4.343zM312.172 30.893c.926 3.367 2.315 6.742 4.155 9.727-.841-.083-1.714-.11-2.627-.047-4.028.307-10.564 1.81-13.651 4.58-3.493 3.158-.563 6.438 2.042 9.2 3.564 3.789 11.4 9.679 17.565 8.982a19.34 19.34 0 0 0-2.726 4.368c-2.368 5.195-8.829 24.312 2.135 23.283 6.444-.606 13.132-3.912 18.323-8.449 3.025 5.847 7.232 11.072 13.593 13.336 8.716 3.103 10.183-12.189 8.252-20.024 1.018.099 2.057.176 3.094.164 3.384-.055 8.264-.952 6.872-5.419-1.121-3.615-5.381-4.017-8.43-4.844-6.856-1.873-12.434-5.862-18.041-10.026-.102 1.614-1.437 2.948-3.068 3.001l-.331.011a3.25 3.25 0 0 1-3.311-3.102c-.045-1.389.832-2.597 2.074-3.079 1.118-2.242-1.099-3.935-4.088-4.941-1.03-1.158-1.922-2.464-2.684-3.52a98.55 98.55 0 0 1-8.209-13.654c-1.051-2.117-1.474-4.949-3.501-6.251-2.027-1.28-6.269-1.131-8.449-.652.025 2.481.349 4.964 1.011 7.358zm88.193 148.544c-.629 3.727.672 8.814 2.26 12.182.699 1.488 2.081 3.617 3.719 5.494-.829.269-1.636.582-2.42.895-4.617 1.848-15.251 7.588-8.043 12.505 4.242 2.907 8.824 3.718 13.334 3.008-.701 4.557-.706 9.488 1.976 12.258 4.84 5.027 16.513-6.449 18.496-10.937.309-.694.507-1.384.649-2.084 4.873.934 10.151-.274 15.027-3.653 11.423-7.949-3.836-14.513-12.482-15.479 2.827-6.71-.137-19.851-3.387-23.794-2.198.932-4.47 1.602-6.596 2.729-3.221 1.704-6.692 5.204-8.879 9.202-3.857-1.949-8.832-2.273-13.654-2.326zm19.681 15.687c.842.447 1.313 1.38 1.232 2.287.052.583-.127 1.184-.606 1.696-.811.865-2.459 1.073-3.306.108-.791-.912-1.069-2.006-.476-3.117a2.37 2.37 0 0 1 3.156-.974z" fill="#000"/></g></g></svg>
